<svg width="11" height="18" viewBox="0 0 11 18" fill="none" xmlns="http://www.w3.org/2000/svg">
<path fill-rule="evenodd" clip-rule="evenodd" d="M7.03551 18C7.88761 16.6446 7.96613 15.1807 7.27107 13.6082C7.07778 14.4518 6.72421 14.9638 6.21032 15.1443C6.68753 13.6784 6.28877 12.0947 5.01402 10.3932C4.9865 12.1505 4.59387 13.4307 3.83609 14.2337C2.79217 15.3388 2.80445 16.586 3.8729 17.9752C-0.56242 15.4364 -1.18817 12.0314 1.99559 7.76023C2.19306 8.79206 2.67158 9.42556 3.43121 9.66071C2.6032 5.88139 3.47438 2.66116 6.04471 0C6.06051 5.90569 7.7442 6.43061 9.87296 9.06678C12.1714 12.2303 10.8207 15.8811 7.03551 18Z" fill="#E9D3C6"/>
</svg>
