<svg width="30" height="30" viewBox="0 0 30 30" fill="none" xmlns="http://www.w3.org/2000/svg">
<path d="M25.5041 18.4572C25.5462 18.3292 25.6276 18.2178 25.7367 18.1388C25.8458 18.0598 25.9771 18.0173 26.1118 18.0173H29.7201V11.983H26.1118C25.9771 11.9831 25.8458 11.9406 25.7366 11.8616C25.6275 11.7825 25.5461 11.6711 25.5041 11.543C25.3304 11.0207 25.118 10.512 24.8685 10.0212C24.8078 9.90084 24.7866 9.76435 24.808 9.63121C24.8293 9.49807 24.8922 9.37506 24.9875 9.27973L27.5421 6.72472L23.2752 2.45798L20.7203 5.01288C20.6249 5.10816 20.5019 5.17092 20.3688 5.19221C20.2357 5.21351 20.0992 5.19227 19.9789 5.13151C19.4881 4.88204 18.9794 4.66959 18.457 4.49593C18.329 4.45385 18.2176 4.37244 18.1386 4.26331C18.0596 4.15418 18.017 4.0229 18.017 3.88818V0.280273H11.9828V3.88818C11.9828 4.02292 11.9403 4.15424 11.8613 4.26338C11.7823 4.37252 11.6708 4.45391 11.5428 4.49593C11.0204 4.66959 10.5117 4.88204 10.021 5.13151C9.90064 5.19229 9.76417 5.21355 9.63103 5.19225C9.49789 5.17095 9.37487 5.10818 9.27948 5.01288L6.72448 2.45798L2.45773 6.72472L5.01264 9.27973C5.10783 9.37515 5.17053 9.49815 5.19183 9.63125C5.21312 9.76435 5.19193 9.90077 5.13126 10.0211C4.88179 10.5119 4.66934 11.0206 4.49569 11.543C4.45367 11.6711 4.37228 11.7825 4.26314 11.8616C4.15399 11.9406 4.02268 11.9831 3.88794 11.983H0.280029V18.0173H3.88794C4.02266 18.0173 4.15394 18.0598 4.26307 18.1388C4.37219 18.2178 4.4536 18.3292 4.49569 18.4572C4.66946 18.9798 4.88162 19.4883 5.13126 19.979C5.19197 20.0994 5.21319 20.2359 5.19189 20.369C5.17059 20.5021 5.10787 20.6251 5.01264 20.7205L2.45773 23.2754L6.72448 27.5423L9.27948 24.9878C9.37471 24.8923 9.49771 24.8293 9.63087 24.808C9.76404 24.7866 9.90055 24.8079 10.0209 24.8688C10.5117 25.1182 11.0204 25.3307 11.5428 25.5043C11.6708 25.5464 11.7823 25.6277 11.8613 25.7369C11.9403 25.846 11.9828 25.9774 11.9828 26.1121V29.7203H18.017V26.1121C18.017 25.9774 18.0596 25.8461 18.1386 25.737C18.2176 25.6278 18.329 25.5464 18.457 25.5043C18.9795 25.3306 19.488 25.1183 19.9788 24.8688C20.0991 24.8078 20.2357 24.7865 20.3689 24.8079C20.5021 24.8293 20.6251 24.8923 20.7203 24.9878L23.2752 27.5423L27.5421 23.2754L24.9875 20.7205C24.8922 20.6252 24.8294 20.5022 24.808 20.3691C24.7866 20.236 24.8078 20.0995 24.8685 19.9791C25.118 19.4884 25.3304 18.9796 25.5041 18.4572ZM14.9998 21.4002C11.4654 21.4002 8.59973 18.535 8.59973 15.0001C8.59973 11.4658 11.4653 8.60007 14.9998 8.60007C18.5347 8.60007 21.3999 11.4657 21.3999 15.0001C21.3958 18.533 18.5327 21.3961 14.9998 21.4002Z" fill="white"/>
</svg>
