<svg width="30" height="30" viewBox="0 0 30 30" fill="none" xmlns="http://www.w3.org/2000/svg">
<path d="M25.2241 18.1769C25.2662 18.049 25.3476 17.9375 25.4567 17.8585C25.5658 17.7795 25.6971 17.737 25.8318 17.737H29.44V11.7027H25.8318C25.6971 11.7028 25.5658 11.6603 25.4566 11.5813C25.3475 11.5023 25.2661 11.3908 25.2241 11.2628C25.0504 10.7404 24.838 10.2317 24.5885 9.74096C24.5278 9.62057 24.5066 9.48408 24.5279 9.35094C24.5493 9.21779 24.6122 9.09479 24.7075 8.99945L27.262 6.44445L22.9952 2.1777L20.4403 4.73261C20.3449 4.82789 20.2219 4.89064 20.0888 4.91194C19.9556 4.93324 19.8192 4.912 19.6989 4.85124C19.2081 4.60176 18.6994 4.38931 18.1769 4.21566C18.049 4.17357 17.9375 4.09217 17.8585 3.98304C17.7795 3.87391 17.737 3.74263 17.737 3.60791V0H11.7027V3.60791C11.7028 3.74265 11.6603 3.87396 11.5813 3.98311C11.5023 4.09225 11.3908 4.17364 11.2628 4.21566C10.7404 4.38932 10.2317 4.60177 9.74096 4.85124C9.62061 4.91202 9.48414 4.93328 9.351 4.91198C9.21786 4.89068 9.09484 4.82791 8.99945 4.73261L6.44445 2.1777L2.1777 6.44445L4.73261 8.99945C4.82781 9.09488 4.8905 9.21788 4.9118 9.35098C4.9331 9.48407 4.9119 9.6205 4.85124 9.74086C4.60176 10.2316 4.38931 10.7403 4.21566 11.2628C4.17364 11.3908 4.09225 11.5023 3.98311 11.5813C3.87396 11.6603 3.74265 11.7028 3.60791 11.7027H0V17.737H3.60791C3.74263 17.737 3.87391 17.7795 3.98304 17.8585C4.09217 17.9375 4.17357 18.049 4.21566 18.1769C4.38943 18.6995 4.60159 19.208 4.85124 19.6988C4.91194 19.8191 4.93316 19.9556 4.91186 20.0887C4.89056 20.2218 4.82784 20.3448 4.73261 20.4403L2.1777 22.9952L6.44445 27.262L8.99945 24.7075C9.09468 24.612 9.21768 24.5491 9.35084 24.5277C9.48401 24.5063 9.62052 24.5276 9.74086 24.5885C10.2316 24.838 10.7403 25.0504 11.2628 25.2241C11.3908 25.2661 11.5023 25.3475 11.5813 25.4566C11.6603 25.5658 11.7028 25.6971 11.7027 25.8318V29.44H17.737V25.8318C17.737 25.6971 17.7795 25.5658 17.8585 25.4567C17.9375 25.3476 18.049 25.2662 18.1769 25.2241C18.6995 25.0503 19.208 24.838 19.6988 24.5885C19.8191 24.5276 19.9556 24.5063 20.0888 24.5276C20.222 24.549 20.345 24.612 20.4403 24.7075L22.9952 27.262L27.262 22.9952L24.7075 20.4403C24.6122 20.3449 24.5493 20.222 24.528 20.0888C24.5066 19.9557 24.5278 19.8192 24.5885 19.6989C24.838 19.2081 25.0504 18.6994 25.2241 18.1769ZM14.7198 21.1199C11.1854 21.1199 8.3197 18.2547 8.3197 14.7199C8.3197 11.1855 11.1853 8.3198 14.7198 8.3198C18.2546 8.3198 21.1198 11.1854 21.1198 14.7199C21.1158 18.2527 18.2527 21.1159 14.7198 21.1199Z" fill="#ECD1C3"/>
</svg>
