<svg width="46" height="46" viewBox="0 0 46 46" fill="none" xmlns="http://www.w3.org/2000/svg">
<mask id="mask0_369_1249" style="mask-type:alpha" maskUnits="userSpaceOnUse" x="0" y="0" width="46" height="46">
<path d="M45.9999 22.9998C45.9999 35.7024 35.7025 45.9999 22.9999 45.9999C10.2974 45.9999 0 35.7025 0 22.9998C0 10.2974 10.2974 0 22.9998 0C35.7024 0 45.9999 10.2974 45.9999 22.9998Z" fill="#5C002C"/>
</mask>
<g mask="url(#mask0_369_1249)">
<path d="M45.9999 22.9998C45.9999 35.7024 35.7025 45.9999 22.9999 45.9999C10.2974 45.9999 0 35.7025 0 22.9998C0 10.2974 10.2974 0 22.9998 0C35.7024 0 45.9999 10.2974 45.9999 22.9998Z" fill="#2E3935"/>
<path d="M35.5 45.5C46.5386 44.5077 44.0078 41.5386 45 30.5L36 21.5L34.5 22.5L31.3821 21.5189L27 22.5L24.5 22L19 23.5L14.5 22L12 22.5L17.5 29L20 32.5L35.5 45.5Z" fill="#293330"/>
<path d="M9.93934 21.9393C9.35355 22.5251 9.35355 23.4749 9.93934 24.0607L19.4853 33.6066C20.0711 34.1924 21.0208 34.1924 21.6066 33.6066C22.1924 33.0208 22.1924 32.0711 21.6066 31.4853L13.1213 23L21.6066 14.5147C22.1924 13.9289 22.1924 12.9792 21.6066 12.3934C21.0208 11.8076 20.0711 11.8076 19.4853 12.3934L9.93934 21.9393ZM36 21.5L11 21.5V24.5L36 24.5V21.5Z" fill="white"/>
</g>
</svg>
