<svg width="46" height="46" viewBox="0 0 46 46" fill="none" xmlns="http://www.w3.org/2000/svg">
<path d="M45.9999 22.9998C45.9999 35.7024 35.7025 45.9999 22.9999 45.9999C10.2974 45.9999 0 35.7025 0 22.9998C0 10.2974 10.2974 0 22.9998 0C35.7024 0 45.9999 10.2974 45.9999 22.9998Z" fill="#2E3935"/>
<path d="M25.0841 45.9015C36.1228 44.9092 44.9095 36.1225 45.9017 25.0839L31.2755 10.4579L31.1787 13.4417L26.0173 8.28027L24.0352 11.8451L29.4002 15.755L21.0451 13.6852L14.6054 19.7199L15.4103 30.13L10.458 31.2753L25.0841 45.9015Z" fill="#293330"/>
<path d="M33.5043 26.4572C33.5464 26.3292 33.6278 26.2178 33.737 26.1388C33.8461 26.0598 33.9774 26.0173 34.1121 26.0173H37.7203V19.983H34.1121C33.9774 19.9831 33.846 19.9406 33.7369 19.8616C33.6277 19.7825 33.5464 19.6711 33.5043 19.543C33.3307 19.0207 33.1182 18.512 32.8688 18.0212C32.808 17.9008 32.7868 17.7644 32.8082 17.6312C32.8296 17.4981 32.8924 17.3751 32.9878 17.2797L35.5423 14.7247L31.2754 10.458L28.7205 13.0129C28.6252 13.1082 28.5022 13.1709 28.369 13.1922C28.2359 13.2135 28.0995 13.1923 27.9791 13.1315C27.4884 12.882 26.9796 12.6696 26.4572 12.4959C26.3292 12.4538 26.2178 12.3724 26.1388 12.2633C26.0598 12.1542 26.0173 12.0229 26.0173 11.8882V8.28027H19.983V11.8882C19.9831 12.0229 19.9406 12.1542 19.8616 12.2634C19.7825 12.3725 19.6711 12.4539 19.543 12.4959C19.0207 12.6696 18.512 12.882 18.0212 13.1315C17.9009 13.1923 17.7644 13.2135 17.6313 13.1923C17.4981 13.171 17.3751 13.1082 17.2797 13.0129L14.7247 10.458L10.458 14.7247L13.0129 17.2797C13.1081 17.3752 13.1708 17.4982 13.1921 17.6313C13.2134 17.7643 13.1922 17.9008 13.1315 18.0211C12.882 18.5119 12.6696 19.0206 12.4959 19.543C12.4539 19.6711 12.3725 19.7825 12.2634 19.8616C12.1542 19.9406 12.0229 19.9831 11.8882 19.983H8.28027V26.0173H11.8882C12.0229 26.0173 12.1542 26.0598 12.2633 26.1388C12.3724 26.2178 12.4538 26.3292 12.4959 26.4572C12.6697 26.9798 12.8819 27.4883 13.1315 27.979C13.1922 28.0994 13.2134 28.2359 13.1921 28.369C13.1708 28.5021 13.1081 28.6251 13.0129 28.7205L10.458 31.2754L14.7247 35.5423L17.2797 32.9878C17.375 32.8923 17.498 32.8293 17.6311 32.808C17.7643 32.7866 17.9008 32.8079 18.0211 32.8688C18.5119 33.1182 19.0206 33.3307 19.543 33.5043C19.6711 33.5464 19.7825 33.6277 19.8616 33.7369C19.9406 33.846 19.9831 33.9774 19.983 34.1121V37.7203H26.0173V34.1121C26.0173 33.9774 26.0598 33.8461 26.1388 33.737C26.2178 33.6278 26.3292 33.5464 26.4572 33.5043C26.9798 33.3306 27.4883 33.1183 27.979 32.8688C28.0994 32.8078 28.2359 32.7865 28.3691 32.8079C28.5023 32.8293 28.6253 32.8923 28.7205 32.9878L31.2754 35.5423L35.5423 31.2754L32.9878 28.7205C32.8924 28.6252 32.8296 28.5022 32.8082 28.3691C32.7869 28.236 32.808 28.0995 32.8688 27.9791C33.1182 27.4884 33.3307 26.9796 33.5043 26.4572ZM23 29.4002C19.4657 29.4002 16.6 26.535 16.6 23.0001C16.6 19.4658 19.4656 16.6001 23 16.6001C26.5349 16.6001 29.4001 19.4657 29.4001 23.0001C29.396 26.533 26.533 29.3961 23 29.4002Z" fill="white"/>
</svg>
