<svg width="110" height="28" viewBox="0 0 110 28" fill="none" xmlns="http://www.w3.org/2000/svg">
<g clip-path="url(#clip0_138_1198)">
<path d="M11.1587 21.798H6.7077V4.36265H0V0H17.8509V4.36265H11.1587V21.798Z" fill="white"/>
<path d="M23.7804 17.8154C23.9464 17.8661 24.1124 17.9016 24.2784 17.9218C24.4444 17.932 24.6105 17.937 24.7765 17.937C25.1915 17.937 25.5909 17.8813 25.9748 17.7698C26.3587 17.6583 26.7167 17.5013 27.0487 17.2986C27.3911 17.0858 27.6919 16.8324 27.9513 16.5385C28.2211 16.2345 28.439 15.9001 28.605 15.5353L31.7176 18.5907C31.3233 19.1379 30.8668 19.6294 30.348 20.0651C29.8397 20.5009 29.2846 20.8708 28.6828 21.1748C28.0914 21.4788 27.4637 21.7068 26.7997 21.8588C26.146 22.021 25.4716 22.1021 24.7765 22.1021C23.604 22.1021 22.4991 21.8893 21.4615 21.4636C20.4344 21.038 19.5317 20.4452 18.7535 19.6851C17.9858 18.9251 17.3788 18.0232 16.9327 16.9794C16.4865 15.9254 16.2634 14.7702 16.2634 13.5136C16.2634 12.2266 16.4865 11.051 16.9327 9.98697C17.3788 8.92291 17.9858 8.01592 18.7535 7.26602C19.5317 6.51611 20.4344 5.93341 21.4615 5.51792C22.4991 5.10242 23.604 4.89468 24.7765 4.89468C25.4716 4.89468 26.1512 4.97575 26.8152 5.13789C27.4792 5.30004 28.107 5.53312 28.6984 5.83713C29.3001 6.14115 29.8604 6.51611 30.3792 6.962C30.8979 7.39776 31.3545 7.88925 31.7487 8.43648L23.7804 17.8154ZM25.9593 9.25733C25.7621 9.18639 25.565 9.14079 25.3679 9.12052C25.1811 9.10025 24.984 9.09012 24.7765 9.09012C24.1954 9.09012 23.6455 9.19652 23.1268 9.40934C22.6184 9.61202 22.1722 9.9059 21.7883 10.291C21.4148 10.6761 21.1191 11.1422 20.9012 11.6895C20.6834 12.2266 20.5744 12.8346 20.5744 13.5136C20.5744 13.6656 20.5796 13.8379 20.59 14.0304C20.6107 14.2229 20.6367 14.4206 20.6678 14.6232C20.7093 14.8158 20.756 15.0033 20.8079 15.1857C20.8597 15.3681 20.9272 15.5302 21.0102 15.6721L25.9593 9.25733Z" fill="white"/>
<path d="M55.0934 21.798H50.8602V11.4615C50.8602 11.1777 50.8032 10.9092 50.689 10.6558C50.5853 10.4025 50.4348 10.1795 50.2377 9.98697C50.0406 9.79443 49.8123 9.64748 49.5529 9.54615C49.2935 9.43467 49.0186 9.37894 48.7281 9.37894C48.4376 9.37894 48.1626 9.43467 47.9032 9.54615C47.6542 9.64748 47.4311 9.79443 47.234 9.98697C47.0473 10.1795 46.8968 10.4025 46.7827 10.6558C46.6789 10.9092 46.6271 11.1777 46.6271 11.4615V21.798H42.3783V11.4615C42.3783 11.1777 42.3213 10.9092 42.2071 10.6558C42.1034 10.4025 41.9529 10.1795 41.7558 9.98697C41.5587 9.79443 41.3304 9.64748 41.071 9.54615C40.8116 9.43467 40.5367 9.37894 40.2462 9.37894C39.9557 9.37894 39.6807 9.43467 39.4213 9.54615C39.1723 9.64748 38.9493 9.79443 38.7521 9.98697C38.5654 10.1795 38.4149 10.4025 38.3008 10.6558C38.197 10.9092 38.1452 11.1777 38.1452 11.4615V21.798H33.8964V5.51792H34.9236L36.0753 6.76439C36.6667 6.27796 37.3151 5.903 38.0207 5.63952C38.7366 5.36591 39.4784 5.2291 40.2462 5.2291C41.0243 5.2291 41.7817 5.37097 42.5184 5.65472C43.2654 5.93847 43.9191 6.42997 44.4793 7.12921C44.7387 6.78465 45.0344 6.49077 45.3664 6.24756C45.6985 6.00434 46.046 5.80673 46.4092 5.65472C46.7827 5.50271 47.1666 5.39631 47.5608 5.3355C47.9551 5.26457 48.3442 5.2291 48.7281 5.2291C49.61 5.2291 50.4348 5.39124 51.2026 5.71553C51.9808 6.03981 52.6552 6.4857 53.2258 7.0532C53.8068 7.61057 54.2633 8.26927 54.5954 9.02932C54.9274 9.78936 55.0934 10.6001 55.0934 11.4615V21.798Z" fill="white"/>
<path d="M62.4859 28H58.206V5.51792H59.2332L60.9295 7.47883C61.3134 7.12414 61.7336 6.78972 62.1902 6.47557C62.6467 6.16142 63.1188 5.89287 63.6064 5.66992C64.1044 5.43684 64.618 5.25443 65.1471 5.12269C65.6763 4.99095 66.2106 4.92508 66.7501 4.92508C67.9226 4.92508 69.0224 5.13283 70.0495 5.54832C71.0871 5.95367 71.9897 6.53131 72.7575 7.28122C73.5357 8.03113 74.1478 8.93811 74.5939 10.0022C75.0401 11.0561 75.2632 12.2266 75.2632 13.5136C75.2632 14.8512 75.0401 16.0572 74.5939 17.1314C74.1478 18.1954 73.5357 19.1024 72.7575 19.8523C71.9897 20.5921 71.0871 21.1596 70.0495 21.5548C69.0224 21.9501 67.9226 22.1477 66.7501 22.1477C66.3766 22.1477 66.0031 22.1071 65.6296 22.0261C65.2665 21.945 64.9033 21.8386 64.5402 21.7068C64.1874 21.565 63.8347 21.4079 63.4819 21.2356C63.1395 21.0633 62.8075 20.886 62.4859 20.7036V28ZM70.9989 13.5136C70.9989 12.8245 70.8847 12.2063 70.6565 11.6591C70.4386 11.1118 70.1377 10.6507 69.7538 10.2758C69.3699 9.8907 68.9186 9.59682 68.3998 9.39414C67.8811 9.19146 67.3312 9.09012 66.7501 9.09012C66.1691 9.09012 65.6192 9.19146 65.1005 9.39414C64.5921 9.59682 64.1459 9.8907 63.762 10.2758C63.3781 10.6507 63.0721 11.1118 62.8438 11.6591C62.6259 12.2063 62.517 12.8245 62.517 13.5136C62.517 14.1723 62.6259 14.7752 62.8438 15.3225C63.0721 15.8697 63.3781 16.3359 63.762 16.721C64.1459 17.106 64.5921 17.405 65.1005 17.6178C65.6192 17.8306 66.1691 17.937 66.7501 17.937C67.3312 17.937 67.8811 17.8306 68.3998 17.6178C68.9186 17.405 69.3699 17.106 69.7538 16.721C70.1377 16.3359 70.4386 15.8697 70.6565 15.3225C70.8847 14.7752 70.9989 14.1723 70.9989 13.5136Z" fill="white"/>
<path d="M89.8769 19.8979C89.5345 20.202 89.1662 20.4908 88.7719 20.7644C88.388 21.0279 87.9834 21.2609 87.558 21.4636C87.1326 21.6562 86.6917 21.8082 86.2351 21.9197C85.789 22.0413 85.3325 22.1021 84.8656 22.1021C83.8384 22.1021 82.8735 21.9247 81.9709 21.57C81.0682 21.2153 80.2745 20.7137 79.5897 20.0651C78.9153 19.4064 78.381 18.6109 77.9867 17.6786C77.6028 16.7362 77.4109 15.6822 77.4109 14.5168V5.51792H81.644V14.5168C81.644 15.0641 81.727 15.5556 81.893 15.9913C82.0694 16.4169 82.3029 16.7767 82.5934 17.0706C82.8839 17.3645 83.2211 17.5874 83.605 17.7394C83.9992 17.8914 84.4194 17.9674 84.8656 17.9674C85.3014 17.9674 85.7112 17.8712 86.0951 17.6786C86.4893 17.4759 86.8317 17.2125 87.1222 16.8882C87.4128 16.5639 87.641 16.1991 87.807 15.7937C87.973 15.3782 88.056 14.9526 88.056 14.5168V5.51792H92.3048V21.798H91.2776L89.8769 19.8979Z" fill="white"/>
<path d="M104.709 21.798H94.9972V17.6634H104.709C104.999 17.6634 105.248 17.5621 105.456 17.3594C105.663 17.1567 105.767 16.9135 105.767 16.6297C105.767 16.3359 105.663 16.1433 105.456 16.0521C105.248 15.9609 104.999 15.9153 104.709 15.9153H100.289C99.552 15.9153 98.862 15.7785 98.2187 15.5049C97.5755 15.2313 97.0152 14.8614 96.5379 14.3952C96.0606 13.9189 95.6819 13.3666 95.4018 12.7383C95.132 12.11 94.9972 11.4361 94.9972 10.7166C94.9972 9.9971 95.132 9.3232 95.4018 8.6949C95.6819 8.06659 96.0606 7.51936 96.5379 7.0532C97.0152 6.58704 97.5755 6.22222 98.2187 5.95874C98.862 5.68512 99.552 5.54832 100.289 5.54832H108.895V9.68295H100.289C99.9981 9.68295 99.7491 9.78429 99.5416 9.98697C99.3341 10.1896 99.2303 10.4329 99.2303 10.7166C99.2303 11.0105 99.3341 11.2638 99.5416 11.4767C99.7491 11.6793 99.9981 11.7807 100.289 11.7807H104.709C105.435 11.7807 106.12 11.9023 106.763 12.1455C107.406 12.3786 107.966 12.7079 108.444 13.1336C108.921 13.5592 109.3 14.0709 109.58 14.6688C109.86 15.2667 110 15.9204 110 16.6297C110 17.3493 109.86 18.0232 109.58 18.6515C109.3 19.2696 108.921 19.8169 108.444 20.2932C107.966 20.7593 107.406 21.1292 106.763 21.4028C106.12 21.6663 105.435 21.798 104.709 21.798Z" fill="white"/>
</g>
<defs>
<clipPath id="clip0_138_1198">
<rect width="110" height="28" fill="white"/>
</clipPath>
</defs>
</svg>
